<mxfile host="app.diagrams.net" modified="2023-12-01T19:28:02.620Z" agent="Mozilla/5.0 (Windows NT 10.0; Win64; x64) AppleWebKit/537.36 (KHTML, like Gecko) Chrome/119.0.0.0 Safari/537.36" etag="5nNHs0nEnOwUeCusH5Ok" version="22.1.5" type="google">
  <diagram id="C5RBs43oDa-KdzZeNtuy" name="Page-1">
    <mxGraphModel grid="1" page="1" gridSize="10" guides="1" tooltips="1" connect="1" arrows="1" fold="1" pageScale="1" pageWidth="827" pageHeight="1169" math="0" shadow="0">
      <root>
        <mxCell id="WIyWlLk6GJQsqaUBKTNV-0" />
        <mxCell id="WIyWlLk6GJQsqaUBKTNV-1" parent="WIyWlLk6GJQsqaUBKTNV-0" />
        <mxCell id="WIyWlLk6GJQsqaUBKTNV-2" value="" style="rounded=0;html=1;jettySize=auto;orthogonalLoop=1;fontSize=11;endArrow=block;endFill=0;endSize=8;strokeWidth=1;shadow=0;labelBackgroundColor=none;edgeStyle=orthogonalEdgeStyle;" edge="1" parent="WIyWlLk6GJQsqaUBKTNV-1" source="WIyWlLk6GJQsqaUBKTNV-3" target="WIyWlLk6GJQsqaUBKTNV-6">
          <mxGeometry relative="1" as="geometry" />
        </mxCell>
        <mxCell id="WIyWlLk6GJQsqaUBKTNV-3" value="Start" style="rounded=1;whiteSpace=wrap;html=1;fontSize=12;glass=0;strokeWidth=1;shadow=0;" vertex="1" parent="WIyWlLk6GJQsqaUBKTNV-1">
          <mxGeometry x="160" y="80" width="120" height="40" as="geometry" />
        </mxCell>
        <mxCell id="ZKrWzYSf3vrOwkpuwWW6-12" style="edgeStyle=orthogonalEdgeStyle;rounded=0;orthogonalLoop=1;jettySize=auto;html=1;entryX=0;entryY=0.5;entryDx=0;entryDy=0;" edge="1" parent="WIyWlLk6GJQsqaUBKTNV-1" source="WIyWlLk6GJQsqaUBKTNV-6" target="WIyWlLk6GJQsqaUBKTNV-7">
          <mxGeometry relative="1" as="geometry" />
        </mxCell>
        <mxCell id="ZKrWzYSf3vrOwkpuwWW6-13" value="Tidak" style="edgeLabel;html=1;align=center;verticalAlign=middle;resizable=0;points=[];" connectable="0" vertex="1" parent="ZKrWzYSf3vrOwkpuwWW6-12">
          <mxGeometry x="-0.0196" y="-1" relative="1" as="geometry">
            <mxPoint as="offset" />
          </mxGeometry>
        </mxCell>
        <mxCell id="ZKrWzYSf3vrOwkpuwWW6-14" style="edgeStyle=orthogonalEdgeStyle;rounded=0;orthogonalLoop=1;jettySize=auto;html=1;entryX=0.5;entryY=0;entryDx=0;entryDy=0;" edge="1" parent="WIyWlLk6GJQsqaUBKTNV-1" source="WIyWlLk6GJQsqaUBKTNV-6" target="ZKrWzYSf3vrOwkpuwWW6-2">
          <mxGeometry relative="1" as="geometry" />
        </mxCell>
        <mxCell id="ZKrWzYSf3vrOwkpuwWW6-15" value="Iya" style="edgeLabel;html=1;align=center;verticalAlign=middle;resizable=0;points=[];" connectable="0" vertex="1" parent="ZKrWzYSf3vrOwkpuwWW6-14">
          <mxGeometry x="-0.3292" relative="1" as="geometry">
            <mxPoint as="offset" />
          </mxGeometry>
        </mxCell>
        <mxCell id="WIyWlLk6GJQsqaUBKTNV-6" value="&lt;span style=&quot;font-size: 11px;&quot;&gt;Punya akun&lt;/span&gt;" style="rhombus;whiteSpace=wrap;html=1;shadow=0;fontFamily=Helvetica;fontSize=12;align=center;strokeWidth=1;spacing=6;spacingTop=-4;" vertex="1" parent="WIyWlLk6GJQsqaUBKTNV-1">
          <mxGeometry x="170" y="200" width="100" height="80" as="geometry" />
        </mxCell>
        <mxCell id="ZKrWzYSf3vrOwkpuwWW6-4" style="edgeStyle=orthogonalEdgeStyle;rounded=0;orthogonalLoop=1;jettySize=auto;html=1;" edge="1" parent="WIyWlLk6GJQsqaUBKTNV-1" source="WIyWlLk6GJQsqaUBKTNV-7">
          <mxGeometry relative="1" as="geometry">
            <mxPoint x="220" y="160" as="targetPoint" />
            <Array as="points">
              <mxPoint x="415" y="160" />
            </Array>
          </mxGeometry>
        </mxCell>
        <mxCell id="WIyWlLk6GJQsqaUBKTNV-7" value="Mendaftar" style="rounded=1;whiteSpace=wrap;html=1;fontSize=12;glass=0;strokeWidth=1;shadow=0;" vertex="1" parent="WIyWlLk6GJQsqaUBKTNV-1">
          <mxGeometry x="354" y="220" width="120" height="40" as="geometry" />
        </mxCell>
        <mxCell id="ZKrWzYSf3vrOwkpuwWW6-6" style="edgeStyle=orthogonalEdgeStyle;rounded=0;orthogonalLoop=1;jettySize=auto;html=1;entryX=0.5;entryY=0;entryDx=0;entryDy=0;" edge="1" parent="WIyWlLk6GJQsqaUBKTNV-1" source="WIyWlLk6GJQsqaUBKTNV-11" target="ZKrWzYSf3vrOwkpuwWW6-5">
          <mxGeometry relative="1" as="geometry" />
        </mxCell>
        <mxCell id="WIyWlLk6GJQsqaUBKTNV-11" value="Memilih produk" style="rounded=1;whiteSpace=wrap;html=1;fontSize=12;glass=0;strokeWidth=1;shadow=0;" vertex="1" parent="WIyWlLk6GJQsqaUBKTNV-1">
          <mxGeometry x="160" y="480" width="120" height="40" as="geometry" />
        </mxCell>
        <mxCell id="ZKrWzYSf3vrOwkpuwWW6-1" value="&lt;font style=&quot;font-size: 18px;&quot;&gt;User&lt;/font&gt;" style="text;html=1;align=center;verticalAlign=middle;resizable=0;points=[];autosize=1;strokeColor=none;fillColor=none;" vertex="1" parent="WIyWlLk6GJQsqaUBKTNV-1">
          <mxGeometry x="190" y="15" width="60" height="40" as="geometry" />
        </mxCell>
        <mxCell id="ZKrWzYSf3vrOwkpuwWW6-10" style="edgeStyle=orthogonalEdgeStyle;rounded=0;orthogonalLoop=1;jettySize=auto;html=1;entryX=0.5;entryY=0;entryDx=0;entryDy=0;" edge="1" parent="WIyWlLk6GJQsqaUBKTNV-1" source="ZKrWzYSf3vrOwkpuwWW6-2" target="WIyWlLk6GJQsqaUBKTNV-11">
          <mxGeometry relative="1" as="geometry" />
        </mxCell>
        <mxCell id="ZKrWzYSf3vrOwkpuwWW6-2" value="Masuk" style="rounded=1;whiteSpace=wrap;html=1;" vertex="1" parent="WIyWlLk6GJQsqaUBKTNV-1">
          <mxGeometry x="160" y="340" width="120" height="60" as="geometry" />
        </mxCell>
        <mxCell id="ZKrWzYSf3vrOwkpuwWW6-8" style="edgeStyle=orthogonalEdgeStyle;rounded=0;orthogonalLoop=1;jettySize=auto;html=1;exitX=1;exitY=0.5;exitDx=0;exitDy=0;entryX=1.017;entryY=0.501;entryDx=0;entryDy=0;entryPerimeter=0;" edge="1" parent="WIyWlLk6GJQsqaUBKTNV-1" target="WIyWlLk6GJQsqaUBKTNV-11">
          <mxGeometry relative="1" as="geometry">
            <mxPoint x="320" y="500" as="targetPoint" />
            <mxPoint x="280" y="639.75" as="sourcePoint" />
            <Array as="points">
              <mxPoint x="320" y="640" />
              <mxPoint x="320" y="500" />
            </Array>
          </mxGeometry>
        </mxCell>
        <mxCell id="ZKrWzYSf3vrOwkpuwWW6-9" value="Tidak" style="edgeLabel;html=1;align=center;verticalAlign=middle;resizable=0;points=[];" connectable="0" vertex="1" parent="ZKrWzYSf3vrOwkpuwWW6-8">
          <mxGeometry x="-0.8527" relative="1" as="geometry">
            <mxPoint as="offset" />
          </mxGeometry>
        </mxCell>
        <mxCell id="ZKrWzYSf3vrOwkpuwWW6-16" style="edgeStyle=orthogonalEdgeStyle;rounded=0;orthogonalLoop=1;jettySize=auto;html=1;entryX=0.5;entryY=0;entryDx=0;entryDy=0;" edge="1" parent="WIyWlLk6GJQsqaUBKTNV-1" source="ZKrWzYSf3vrOwkpuwWW6-5" target="ZKrWzYSf3vrOwkpuwWW6-19">
          <mxGeometry relative="1" as="geometry">
            <mxPoint x="220.0000000000001" y="770" as="targetPoint" />
          </mxGeometry>
        </mxCell>
        <mxCell id="ZKrWzYSf3vrOwkpuwWW6-17" value="Iya" style="edgeLabel;html=1;align=center;verticalAlign=middle;resizable=0;points=[];" connectable="0" vertex="1" parent="ZKrWzYSf3vrOwkpuwWW6-16">
          <mxGeometry x="-0.1736" relative="1" as="geometry">
            <mxPoint as="offset" />
          </mxGeometry>
        </mxCell>
        <mxCell id="ZKrWzYSf3vrOwkpuwWW6-5" value="Mendapatkan&lt;br&gt;produk" style="rhombus;whiteSpace=wrap;html=1;" vertex="1" parent="WIyWlLk6GJQsqaUBKTNV-1">
          <mxGeometry x="160" y="585" width="120" height="110" as="geometry" />
        </mxCell>
        <mxCell id="ZKrWzYSf3vrOwkpuwWW6-19" value="Membeli produk" style="rounded=1;whiteSpace=wrap;html=1;" vertex="1" parent="WIyWlLk6GJQsqaUBKTNV-1">
          <mxGeometry x="160" y="780" width="120" height="60" as="geometry" />
        </mxCell>
        <mxCell id="ZKrWzYSf3vrOwkpuwWW6-20" value="" style="rounded=1;whiteSpace=wrap;html=1;" vertex="1" parent="WIyWlLk6GJQsqaUBKTNV-1">
          <mxGeometry x="354" y="780" width="120" height="60" as="geometry" />
        </mxCell>
        <mxCell id="ZKrWzYSf3vrOwkpuwWW6-28" style="edgeStyle=orthogonalEdgeStyle;rounded=0;orthogonalLoop=1;jettySize=auto;html=1;entryX=0;entryY=0.5;entryDx=0;entryDy=0;" edge="1" parent="WIyWlLk6GJQsqaUBKTNV-1" source="ZKrWzYSf3vrOwkpuwWW6-21" target="ZKrWzYSf3vrOwkpuwWW6-29">
          <mxGeometry relative="1" as="geometry">
            <mxPoint x="540" y="810" as="targetPoint" />
          </mxGeometry>
        </mxCell>
        <mxCell id="ZKrWzYSf3vrOwkpuwWW6-21" value="&lt;div style=&quot;text-align: justify;&quot;&gt;&lt;span style=&quot;font-size: 10px; background-color: initial;&quot;&gt;Mengisi detail alamat&lt;/span&gt;&lt;/div&gt;&lt;font style=&quot;font-size: 10px;&quot;&gt;&lt;div style=&quot;text-align: justify;&quot;&gt;atau barang mau di ambil&lt;/div&gt;&lt;div style=&quot;text-align: justify;&quot;&gt;ke toko&lt;/div&gt;&lt;/font&gt;" style="text;html=1;align=center;verticalAlign=middle;resizable=0;points=[];autosize=1;strokeColor=none;fillColor=none;" vertex="1" parent="WIyWlLk6GJQsqaUBKTNV-1">
          <mxGeometry x="344" y="785" width="140" height="50" as="geometry" />
        </mxCell>
        <mxCell id="ZKrWzYSf3vrOwkpuwWW6-27" style="edgeStyle=orthogonalEdgeStyle;rounded=0;orthogonalLoop=1;jettySize=auto;html=1;entryX=-0.006;entryY=0.497;entryDx=0;entryDy=0;entryPerimeter=0;" edge="1" parent="WIyWlLk6GJQsqaUBKTNV-1" source="ZKrWzYSf3vrOwkpuwWW6-19" target="ZKrWzYSf3vrOwkpuwWW6-21">
          <mxGeometry relative="1" as="geometry" />
        </mxCell>
        <mxCell id="ZKrWzYSf3vrOwkpuwWW6-30" style="edgeStyle=orthogonalEdgeStyle;rounded=0;orthogonalLoop=1;jettySize=auto;html=1;entryX=0.5;entryY=0;entryDx=0;entryDy=0;" edge="1" parent="WIyWlLk6GJQsqaUBKTNV-1" source="ZKrWzYSf3vrOwkpuwWW6-29" target="ZKrWzYSf3vrOwkpuwWW6-20">
          <mxGeometry relative="1" as="geometry">
            <mxPoint x="600" y="700" as="targetPoint" />
            <Array as="points">
              <mxPoint x="600" y="700" />
              <mxPoint x="414" y="700" />
            </Array>
          </mxGeometry>
        </mxCell>
        <mxCell id="ZKrWzYSf3vrOwkpuwWW6-32" value="Tidak" style="edgeLabel;html=1;align=center;verticalAlign=middle;resizable=0;points=[];" connectable="0" vertex="1" parent="ZKrWzYSf3vrOwkpuwWW6-30">
          <mxGeometry x="-0.0342" relative="1" as="geometry">
            <mxPoint as="offset" />
          </mxGeometry>
        </mxCell>
        <mxCell id="ZKrWzYSf3vrOwkpuwWW6-33" style="edgeStyle=orthogonalEdgeStyle;rounded=0;orthogonalLoop=1;jettySize=auto;html=1;entryX=0.5;entryY=0;entryDx=0;entryDy=0;" edge="1" parent="WIyWlLk6GJQsqaUBKTNV-1" source="ZKrWzYSf3vrOwkpuwWW6-29" target="ZKrWzYSf3vrOwkpuwWW6-35">
          <mxGeometry relative="1" as="geometry">
            <mxPoint x="600" y="970" as="targetPoint" />
          </mxGeometry>
        </mxCell>
        <mxCell id="ZKrWzYSf3vrOwkpuwWW6-34" value="Iya" style="edgeLabel;html=1;align=center;verticalAlign=middle;resizable=0;points=[];" connectable="0" vertex="1" parent="ZKrWzYSf3vrOwkpuwWW6-33">
          <mxGeometry x="-0.1958" relative="1" as="geometry">
            <mxPoint as="offset" />
          </mxGeometry>
        </mxCell>
        <mxCell id="ZKrWzYSf3vrOwkpuwWW6-29" value="Konfirmasi&lt;br&gt;pembayaran" style="rhombus;whiteSpace=wrap;html=1;" vertex="1" parent="WIyWlLk6GJQsqaUBKTNV-1">
          <mxGeometry x="550" y="760" width="100" height="100" as="geometry" />
        </mxCell>
        <mxCell id="ZKrWzYSf3vrOwkpuwWW6-38" style="edgeStyle=orthogonalEdgeStyle;rounded=0;orthogonalLoop=1;jettySize=auto;html=1;entryX=0.5;entryY=0;entryDx=0;entryDy=0;" edge="1" parent="WIyWlLk6GJQsqaUBKTNV-1" source="ZKrWzYSf3vrOwkpuwWW6-35" target="ZKrWzYSf3vrOwkpuwWW6-37">
          <mxGeometry relative="1" as="geometry" />
        </mxCell>
        <mxCell id="ZKrWzYSf3vrOwkpuwWW6-35" value="Memilih metode pembayaran" style="rounded=1;whiteSpace=wrap;html=1;" vertex="1" parent="WIyWlLk6GJQsqaUBKTNV-1">
          <mxGeometry x="540" y="980" width="120" height="60" as="geometry" />
        </mxCell>
        <mxCell id="ZKrWzYSf3vrOwkpuwWW6-42" style="edgeStyle=orthogonalEdgeStyle;rounded=0;orthogonalLoop=1;jettySize=auto;html=1;entryX=1;entryY=0.5;entryDx=0;entryDy=0;" edge="1" parent="WIyWlLk6GJQsqaUBKTNV-1" source="ZKrWzYSf3vrOwkpuwWW6-37" target="ZKrWzYSf3vrOwkpuwWW6-40">
          <mxGeometry relative="1" as="geometry" />
        </mxCell>
        <mxCell id="ZKrWzYSf3vrOwkpuwWW6-43" style="edgeStyle=orthogonalEdgeStyle;rounded=0;orthogonalLoop=1;jettySize=auto;html=1;entryX=0;entryY=0.5;entryDx=0;entryDy=0;" edge="1" parent="WIyWlLk6GJQsqaUBKTNV-1" source="ZKrWzYSf3vrOwkpuwWW6-37" target="ZKrWzYSf3vrOwkpuwWW6-41">
          <mxGeometry relative="1" as="geometry" />
        </mxCell>
        <mxCell id="ZKrWzYSf3vrOwkpuwWW6-37" value="" style="ellipse;whiteSpace=wrap;html=1;aspect=fixed;" vertex="1" parent="WIyWlLk6GJQsqaUBKTNV-1">
          <mxGeometry x="560" y="1120" width="80" height="80" as="geometry" />
        </mxCell>
        <mxCell id="ZKrWzYSf3vrOwkpuwWW6-45" style="edgeStyle=orthogonalEdgeStyle;rounded=0;orthogonalLoop=1;jettySize=auto;html=1;entryX=0;entryY=0.5;entryDx=0;entryDy=0;" edge="1" parent="WIyWlLk6GJQsqaUBKTNV-1" source="ZKrWzYSf3vrOwkpuwWW6-40" target="ZKrWzYSf3vrOwkpuwWW6-44">
          <mxGeometry relative="1" as="geometry">
            <mxPoint x="420" y="1380" as="targetPoint" />
            <Array as="points">
              <mxPoint x="420" y="1350" />
            </Array>
          </mxGeometry>
        </mxCell>
        <mxCell id="ZKrWzYSf3vrOwkpuwWW6-40" value="COD" style="shape=process;whiteSpace=wrap;html=1;backgroundOutline=1;" vertex="1" parent="WIyWlLk6GJQsqaUBKTNV-1">
          <mxGeometry x="360" y="1130" width="120" height="60" as="geometry" />
        </mxCell>
        <mxCell id="ZKrWzYSf3vrOwkpuwWW6-46" style="edgeStyle=orthogonalEdgeStyle;rounded=0;orthogonalLoop=1;jettySize=auto;html=1;entryX=1;entryY=0.5;entryDx=0;entryDy=0;" edge="1" parent="WIyWlLk6GJQsqaUBKTNV-1" source="ZKrWzYSf3vrOwkpuwWW6-41" target="ZKrWzYSf3vrOwkpuwWW6-44">
          <mxGeometry relative="1" as="geometry">
            <mxPoint x="779.9999999999998" y="1360" as="targetPoint" />
            <Array as="points">
              <mxPoint x="780" y="1275" />
              <mxPoint x="781" y="1275" />
              <mxPoint x="781" y="1350" />
            </Array>
          </mxGeometry>
        </mxCell>
        <mxCell id="ZKrWzYSf3vrOwkpuwWW6-41" value="E-Money" style="shape=process;whiteSpace=wrap;html=1;backgroundOutline=1;" vertex="1" parent="WIyWlLk6GJQsqaUBKTNV-1">
          <mxGeometry x="720" y="1130" width="120" height="60" as="geometry" />
        </mxCell>
        <mxCell id="ZKrWzYSf3vrOwkpuwWW6-47" style="edgeStyle=orthogonalEdgeStyle;rounded=0;orthogonalLoop=1;jettySize=auto;html=1;entryX=0;entryY=0.5;entryDx=0;entryDy=0;" edge="1" parent="WIyWlLk6GJQsqaUBKTNV-1" source="ZKrWzYSf3vrOwkpuwWW6-44" target="ZKrWzYSf3vrOwkpuwWW6-49">
          <mxGeometry relative="1" as="geometry">
            <mxPoint x="940" y="110" as="targetPoint" />
            <Array as="points">
              <mxPoint x="600" y="1560" />
              <mxPoint x="920" y="1560" />
              <mxPoint x="920" y="100" />
            </Array>
          </mxGeometry>
        </mxCell>
        <mxCell id="ZKrWzYSf3vrOwkpuwWW6-44" value="" style="ellipse;whiteSpace=wrap;html=1;aspect=fixed;" vertex="1" parent="WIyWlLk6GJQsqaUBKTNV-1">
          <mxGeometry x="560" y="1310" width="80" height="80" as="geometry" />
        </mxCell>
        <mxCell id="ZKrWzYSf3vrOwkpuwWW6-48" value="&lt;font style=&quot;font-size: 18px;&quot;&gt;Website catering&lt;/font&gt;" style="text;html=1;align=center;verticalAlign=middle;resizable=0;points=[];autosize=1;strokeColor=none;fillColor=none;" vertex="1" parent="WIyWlLk6GJQsqaUBKTNV-1">
          <mxGeometry x="1070" y="13" width="160" height="40" as="geometry" />
        </mxCell>
        <mxCell id="ZKrWzYSf3vrOwkpuwWW6-49" value="Verifikasi pembayaran" style="rounded=1;whiteSpace=wrap;html=1;" vertex="1" parent="WIyWlLk6GJQsqaUBKTNV-1">
          <mxGeometry x="1090" y="70" width="120" height="60" as="geometry" />
        </mxCell>
        <mxCell id="ZKrWzYSf3vrOwkpuwWW6-50" value="&lt;font style=&quot;font-size: 18px;&quot;&gt;Website dashboard&lt;br&gt;penjual&lt;br&gt;&lt;/font&gt;" style="text;html=1;align=center;verticalAlign=middle;resizable=0;points=[];autosize=1;strokeColor=none;fillColor=none;" vertex="1" parent="WIyWlLk6GJQsqaUBKTNV-1">
          <mxGeometry x="1590" y="13" width="180" height="60" as="geometry" />
        </mxCell>
      </root>
    </mxGraphModel>
  </diagram>
</mxfile>
